<?xml version="1.0" encoding="UTF-8" standalone="no"?>
<!DOCTYPE svg PUBLIC "-//W3C//DTD SVG 1.1//EN"
 "http://www.w3.org/Graphics/SVG/1.1/DTD/svg11.dtd">
<!-- Generated by graphviz version 2.36.0 (20140111.2315)
 -->
<!-- Title: /usr/local/nginx/sbin/nginx; 0.0 MB Pages: 1 -->
<svg width="100%" height="100%"
  xmlns="http://www.w3.org/2000/svg" xmlns:xlink="http://www.w3.org/1999/xlink">
<script type="text/ecmascript"><![CDATA[
// SVGPan
// http://www.cyberz.org/blog/2009/12/08/svgpan-a-javascript-svg-panzoomdrag-library/
// Local modification: if(true || ...) below to force panning, never moving.

/**
 *  SVGPan library 1.2
 * ====================
 *
 * Given an unique existing element with id "viewport", including the
 * the library into any SVG adds the following capabilities:
 *
 *  - Mouse panning
 *  - Mouse zooming (using the wheel)
 *  - Object dargging
 *
 * Known issues:
 *
 *  - Zooming (while panning) on Safari has still some issues
 *
 * Releases:
 *
 * 1.2, Sat Mar 20 08:42:50 GMT 2010, Zeng Xiaohui
 *	Fixed a bug with browser mouse handler interaction
 *
 * 1.1, Wed Feb  3 17:39:33 GMT 2010, Zeng Xiaohui
 *	Updated the zoom code to support the mouse wheel on Safari/Chrome
 *
 * 1.0, Andrea Leofreddi
 *	First release
 *
 * This code is licensed under the following BSD license:
 *
 * Copyright 2009-2010 Andrea Leofreddi <a.leofreddi@itcharm.com>. All rights reserved.
 *
 * Redistribution and use in source and binary forms, with or without modification, are
 * permitted provided that the following conditions are met:
 *
 *    1. Redistributions of source code must retain the above copyright notice, this list of
 *       conditions and the following disclaimer.
 *
 *    2. Redistributions in binary form must reproduce the above copyright notice, this list
 *       of conditions and the following disclaimer in the documentation and/or other materials
 *       provided with the distribution.
 *
 * THIS SOFTWARE IS PROVIDED BY Andrea Leofreddi ``AS IS'' AND ANY EXPRESS OR IMPLIED
 * WARRANTIES, INCLUDING, BUT NOT LIMITED TO, THE IMPLIED WARRANTIES OF MERCHANTABILITY AND
 * FITNESS FOR A PARTICULAR PURPOSE ARE DISCLAIMED. IN NO EVENT SHALL Andrea Leofreddi OR
 * CONTRIBUTORS BE LIABLE FOR ANY DIRECT, INDIRECT, INCIDENTAL, SPECIAL, EXEMPLARY, OR
 * CONSEQUENTIAL DAMAGES (INCLUDING, BUT NOT LIMITED TO, PROCUREMENT OF SUBSTITUTE GOODS OR
 * SERVICES; LOSS OF USE, DATA, OR PROFITS; OR BUSINESS INTERRUPTION) HOWEVER CAUSED AND ON
 * ANY THEORY OF LIABILITY, WHETHER IN CONTRACT, STRICT LIABILITY, OR TORT (INCLUDING
 * NEGLIGENCE OR OTHERWISE) ARISING IN ANY WAY OUT OF THE USE OF THIS SOFTWARE, EVEN IF
 * ADVISED OF THE POSSIBILITY OF SUCH DAMAGE.
 *
 * The views and conclusions contained in the software and documentation are those of the
 * authors and should not be interpreted as representing official policies, either expressed
 * or implied, of Andrea Leofreddi.
 */

var root = document.documentElement;

var state = 'none', stateTarget, stateOrigin, stateTf;

setupHandlers(root);

/**
 * Register handlers
 */
function setupHandlers(root){
	setAttributes(root, {
		"onmouseup" : "add(evt)",
		"onmousedown" : "handleMouseDown(evt)",
		"onmousemove" : "handleMouseMove(evt)",
		"onmouseup" : "handleMouseUp(evt)",
		//"onmouseout" : "handleMouseUp(evt)", // Decomment this to stop the pan functionality when dragging out of the SVG element
	});

	if(navigator.userAgent.toLowerCase().indexOf('webkit') >= 0)
		window.addEventListener('mousewheel', handleMouseWheel, false); // Chrome/Safari
	else
		window.addEventListener('DOMMouseScroll', handleMouseWheel, false); // Others

	var g = svgDoc.getElementById("svg");
	g.width = "100%";
	g.height = "100%";
}

/**
 * Instance an SVGPoint object with given event coordinates.
 */
function getEventPoint(evt) {
	var p = root.createSVGPoint();

	p.x = evt.clientX;
	p.y = evt.clientY;

	return p;
}

/**
 * Sets the current transform matrix of an element.
 */
function setCTM(element, matrix) {
	var s = "matrix(" + matrix.a + "," + matrix.b + "," + matrix.c + "," + matrix.d + "," + matrix.e + "," + matrix.f + ")";

	element.setAttribute("transform", s);
}

/**
 * Dumps a matrix to a string (useful for debug).
 */
function dumpMatrix(matrix) {
	var s = "[ " + matrix.a + ", " + matrix.c + ", " + matrix.e + "\n  " + matrix.b + ", " + matrix.d + ", " + matrix.f + "\n  0, 0, 1 ]";

	return s;
}

/**
 * Sets attributes of an element.
 */
function setAttributes(element, attributes){
	for (i in attributes)
		element.setAttributeNS(null, i, attributes[i]);
}

/**
 * Handle mouse move event.
 */
function handleMouseWheel(evt) {
	if(evt.preventDefault)
		evt.preventDefault();

	evt.returnValue = false;

	var svgDoc = evt.target.ownerDocument;

	var delta;

	if(evt.wheelDelta)
		delta = evt.wheelDelta / 3600; // Chrome/Safari
	else
		delta = evt.detail / -90; // Mozilla

	var z = 1 + delta; // Zoom factor: 0.9/1.1

	var g = svgDoc.getElementById("viewport");

	var p = getEventPoint(evt);

	p = p.matrixTransform(g.getCTM().inverse());

	// Compute new scale matrix in current mouse position
	var k = root.createSVGMatrix().translate(p.x, p.y).scale(z).translate(-p.x, -p.y);

        setCTM(g, g.getCTM().multiply(k));

	stateTf = stateTf.multiply(k.inverse());
}

/**
 * Handle mouse move event.
 */
function handleMouseMove(evt) {
	if(evt.preventDefault)
		evt.preventDefault();

	evt.returnValue = false;

	var svgDoc = evt.target.ownerDocument;

	var g = svgDoc.getElementById("viewport");

	if(state == 'pan') {
		// Pan mode
		var p = getEventPoint(evt).matrixTransform(stateTf);

		setCTM(g, stateTf.inverse().translate(p.x - stateOrigin.x, p.y - stateOrigin.y));
	} else if(state == 'move') {
		// Move mode
		var p = getEventPoint(evt).matrixTransform(g.getCTM().inverse());

		setCTM(stateTarget, root.createSVGMatrix().translate(p.x - stateOrigin.x, p.y - stateOrigin.y).multiply(g.getCTM().inverse()).multiply(stateTarget.getCTM()));

		stateOrigin = p;
	}
}

/**
 * Handle click event.
 */
function handleMouseDown(evt) {
	if(evt.preventDefault)
		evt.preventDefault();

	evt.returnValue = false;

	var svgDoc = evt.target.ownerDocument;

	var g = svgDoc.getElementById("viewport");

	if(true || evt.target.tagName == "svg") {
		// Pan mode
		state = 'pan';

		stateTf = g.getCTM().inverse();

		stateOrigin = getEventPoint(evt).matrixTransform(stateTf);
	} else {
		// Move mode
		state = 'move';

		stateTarget = evt.target;

		stateTf = g.getCTM().inverse();

		stateOrigin = getEventPoint(evt).matrixTransform(stateTf);
	}
}

/**
 * Handle mouse button release event.
 */
function handleMouseUp(evt) {
	if(evt.preventDefault)
		evt.preventDefault();

	evt.returnValue = false;

	var svgDoc = evt.target.ownerDocument;

	if(state == 'pan' || state == 'move') {
		// Quit pan mode
		state = '';
	}
}

]]></script>
<g id="viewport" transform="translate(0,0)">
<g id="viewport" class="graph" transform="scale(1 1) rotate(0) translate(4 1430)">
<title>/usr/local/nginx/sbin/nginx; 0.0 MB</title>
<polygon fill="white" stroke="none" points="-4,4 -4,-1430 597,-1430 597,4 -4,4"/>
<!-- Legend -->
<g id="node1" class="node"><title>Legend</title>
<text text-anchor="start" x="7.5" y="-1402.8" font-family="Times,serif" font-size="24.00">/usr/local/nginx/sbin/nginx</text>
<text text-anchor="start" x="7.5" y="-1376.8" font-family="Times,serif" font-size="24.00">Total MB: 0.0</text>
<text text-anchor="start" x="7.5" y="-1350.8" font-family="Times,serif" font-size="24.00">Focusing on: 0.0</text>
<text text-anchor="start" x="7.5" y="-1324.8" font-family="Times,serif" font-size="24.00">Dropped nodes with &lt;= 0.0 abs(MB)</text>
<text text-anchor="start" x="7.5" y="-1298.8" font-family="Times,serif" font-size="24.00">Dropped edges with &lt;= 0.0 MB</text>
</g>
<!-- N1 -->
<g id="node2" class="node"><title>N1</title>
<polygon fill="none" stroke="black" points="460,-1235.5 386,-1235.5 386,-1200.5 460,-1200.5 460,-1235.5"/>
<text text-anchor="middle" x="423" y="-1225.1" font-family="Times,serif" font-size="8.00">__libc_start_main</text>
<text text-anchor="end" x="452" y="-1216.1" font-family="Times,serif" font-size="8.00">0.0 (0.0%)</text>
<text text-anchor="end" x="452" y="-1207.1" font-family="Times,serif" font-size="8.00">of 0.0 (100.0%)</text>
</g>
<!-- N3 -->
<g id="node4" class="node"><title>N3</title>
<polygon fill="none" stroke="black" points="457,-1147.5 389,-1147.5 389,-1112.5 457,-1112.5 457,-1147.5"/>
<text text-anchor="middle" x="423" y="-1137.1" font-family="Times,serif" font-size="8.00">main</text>
<text text-anchor="end" x="449" y="-1128.1" font-family="Times,serif" font-size="8.00">0.0 (0.0%)</text>
<text text-anchor="end" x="449" y="-1119.1" font-family="Times,serif" font-size="8.00">of 0.0 (100.0%)</text>
</g>
<!-- N1&#45;&gt;N3 -->
<g id="edge3" class="edge"><title>N1&#45;&gt;N3</title>
<path fill="none" stroke="black" stroke-width="2" d="M423,-1200.42C423,-1188.28 423,-1171.56 423,-1157.58"/>
<polygon fill="black" stroke="black" stroke-width="2" points="426.5,-1157.53 423,-1147.53 419.5,-1157.53 426.5,-1157.53"/>
<text text-anchor="middle" x="432" y="-1170.3" font-family="Times,serif" font-size="14.00">0.0</text>
</g>
<!-- N2 -->
<g id="node3" class="node"><title>N2</title>
<polygon fill="none" stroke="black" points="457,-1374.5 389,-1374.5 389,-1339.5 457,-1339.5 457,-1374.5"/>
<text text-anchor="middle" x="423" y="-1364.1" font-family="Times,serif" font-size="8.00">_start</text>
<text text-anchor="end" x="449" y="-1355.1" font-family="Times,serif" font-size="8.00">0.0 (0.0%)</text>
<text text-anchor="end" x="449" y="-1346.1" font-family="Times,serif" font-size="8.00">of 0.0 (100.0%)</text>
</g>
<!-- N2&#45;&gt;N1 -->
<g id="edge7" class="edge"><title>N2&#45;&gt;N1</title>
<path fill="none" stroke="black" stroke-width="2" d="M423,-1339.47C423,-1316.23 423,-1273.61 423,-1245.8"/>
<polygon fill="black" stroke="black" stroke-width="2" points="426.5,-1245.58 423,-1235.58 419.5,-1245.58 426.5,-1245.58"/>
<text text-anchor="middle" x="432" y="-1258.3" font-family="Times,serif" font-size="14.00">0.0</text>
</g>
<!-- N5 -->
<g id="node6" class="node"><title>N5</title>
<polygon fill="none" stroke="black" points="473.5,-1059.5 372.5,-1059.5 372.5,-1024.5 473.5,-1024.5 473.5,-1059.5"/>
<text text-anchor="middle" x="423" y="-1049.1" font-family="Times,serif" font-size="8.00">ngx_master_process_cycle</text>
<text text-anchor="end" x="466" y="-1040.1" font-family="Times,serif" font-size="8.00">0.0 (0.0%)</text>
<text text-anchor="end" x="466" y="-1031.1" font-family="Times,serif" font-size="8.00">of 0.0 (100.0%)</text>
</g>
<!-- N3&#45;&gt;N5 -->
<g id="edge5" class="edge"><title>N3&#45;&gt;N5</title>
<path fill="none" stroke="black" stroke-width="2" d="M423,-1112.42C423,-1100.28 423,-1083.56 423,-1069.58"/>
<polygon fill="black" stroke="black" stroke-width="2" points="426.5,-1069.53 423,-1059.53 419.5,-1069.53 426.5,-1069.53"/>
<text text-anchor="middle" x="432" y="-1082.3" font-family="Times,serif" font-size="14.00">0.0</text>
</g>
<!-- N4 -->
<g id="node5" class="node"><title>N4</title>
<polygon fill="none" stroke="black" points="472.25,-619.5 373.75,-619.5 373.75,-584.5 472.25,-584.5 472.25,-619.5"/>
<text text-anchor="middle" x="423" y="-609.1" font-family="Times,serif" font-size="8.00">ngx_epoll_process_events</text>
<text text-anchor="end" x="464.5" y="-600.1" font-family="Times,serif" font-size="8.00">0.0 (0.0%)</text>
<text text-anchor="end" x="464.5" y="-591.1" font-family="Times,serif" font-size="8.00">of 0.0 (100.0%)</text>
</g>
<!-- N11 -->
<g id="node12" class="node"><title>N11</title>
<polygon fill="none" stroke="black" points="480.5,-531.5 365.5,-531.5 365.5,-496.5 480.5,-496.5 480.5,-531.5"/>
<text text-anchor="middle" x="423" y="-521.1" font-family="Times,serif" font-size="8.00">ngx_http_wait_request_handler</text>
<text text-anchor="end" x="473" y="-512.1" font-family="Times,serif" font-size="8.00">0.0 (0.0%)</text>
<text text-anchor="end" x="473" y="-503.1" font-family="Times,serif" font-size="8.00">of 0.0 (83.3%)</text>
</g>
<!-- N4&#45;&gt;N11 -->
<g id="edge9" class="edge"><title>N4&#45;&gt;N11</title>
<path fill="none" stroke="black" stroke-width="2" d="M423,-584.418C423,-572.283 423,-555.564 423,-541.575"/>
<polygon fill="black" stroke="black" stroke-width="2" points="426.5,-541.531 423,-531.531 419.5,-541.531 426.5,-541.531"/>
<text text-anchor="middle" x="432" y="-554.3" font-family="Times,serif" font-size="14.00">0.0</text>
</g>
<!-- N16 -->
<g id="node17" class="node"><title>N16</title>
<polygon fill="none" stroke="black" points="545,-477.5 471,-477.5 471,-442.5 545,-442.5 545,-477.5"/>
<text text-anchor="middle" x="508" y="-467.1" font-family="Times,serif" font-size="8.00">ngx_event_accept</text>
<text text-anchor="end" x="537" y="-458.1" font-family="Times,serif" font-size="8.00">0.0 (0.0%)</text>
<text text-anchor="end" x="537" y="-449.1" font-family="Times,serif" font-size="8.00">of 0.0 (16.7%)</text>
</g>
<!-- N4&#45;&gt;N16 -->
<g id="edge16" class="edge"><title>N4&#45;&gt;N16</title>
<path fill="none" stroke="black" d="M443.743,-584.343C458.416,-571.503 477.461,-552.517 489,-532 496.676,-518.351 501.359,-501.473 504.154,-487.597"/>
<polygon fill="black" stroke="black" points="507.613,-488.137 505.942,-477.675 500.724,-486.896 507.613,-488.137"/>
<text text-anchor="middle" x="485" y="-554.3" font-family="Times,serif" font-size="14.00">0.0</text>
</g>
<!-- N8 -->
<g id="node9" class="node"><title>N8</title>
<polygon fill="none" stroke="black" points="476.25,-971.5 369.75,-971.5 369.75,-936.5 476.25,-936.5 476.25,-971.5"/>
<text text-anchor="middle" x="423" y="-961.1" font-family="Times,serif" font-size="8.00">ngx_start_worker_processes</text>
<text text-anchor="end" x="468.5" y="-952.1" font-family="Times,serif" font-size="8.00">0.0 (0.0%)</text>
<text text-anchor="end" x="468.5" y="-943.1" font-family="Times,serif" font-size="8.00">of 0.0 (100.0%)</text>
</g>
<!-- N5&#45;&gt;N8 -->
<g id="edge8" class="edge"><title>N5&#45;&gt;N8</title>
<path fill="none" stroke="black" stroke-width="2" d="M423,-1024.42C423,-1012.28 423,-995.564 423,-981.575"/>
<polygon fill="black" stroke="black" stroke-width="2" points="426.5,-981.531 423,-971.531 419.5,-981.531 426.5,-981.531"/>
<text text-anchor="middle" x="432" y="-994.3" font-family="Times,serif" font-size="14.00">0.0</text>
</g>
<!-- N6 -->
<g id="node7" class="node"><title>N6</title>
<polygon fill="none" stroke="black" points="482.25,-707.5 363.75,-707.5 363.75,-672.5 482.25,-672.5 482.25,-707.5"/>
<text text-anchor="middle" x="423" y="-697.1" font-family="Times,serif" font-size="8.00">ngx_process_events_and_timers</text>
<text text-anchor="end" x="474.5" y="-688.1" font-family="Times,serif" font-size="8.00">0.0 (0.0%)</text>
<text text-anchor="end" x="474.5" y="-679.1" font-family="Times,serif" font-size="8.00">of 0.0 (100.0%)</text>
</g>
<!-- N6&#45;&gt;N4 -->
<g id="edge2" class="edge"><title>N6&#45;&gt;N4</title>
<path fill="none" stroke="black" stroke-width="2" d="M423,-672.418C423,-660.283 423,-643.564 423,-629.575"/>
<polygon fill="black" stroke="black" stroke-width="2" points="426.5,-629.531 423,-619.531 419.5,-629.531 426.5,-629.531"/>
<text text-anchor="middle" x="432" y="-642.3" font-family="Times,serif" font-size="14.00">0.0</text>
</g>
<!-- N7 -->
<g id="node8" class="node"><title>N7</title>
<polygon fill="none" stroke="black" points="463,-883.5 383,-883.5 383,-848.5 463,-848.5 463,-883.5"/>
<text text-anchor="middle" x="423" y="-873.1" font-family="Times,serif" font-size="8.00">ngx_spawn_process</text>
<text text-anchor="end" x="455" y="-864.1" font-family="Times,serif" font-size="8.00">0.0 (0.0%)</text>
<text text-anchor="end" x="455" y="-855.1" font-family="Times,serif" font-size="8.00">of 0.0 (100.0%)</text>
</g>
<!-- N9 -->
<g id="node10" class="node"><title>N9</title>
<polygon fill="none" stroke="black" points="475,-795.5 371,-795.5 371,-760.5 475,-760.5 475,-795.5"/>
<text text-anchor="middle" x="423" y="-785.1" font-family="Times,serif" font-size="8.00">ngx_worker_process_cycle</text>
<text text-anchor="end" x="467" y="-776.1" font-family="Times,serif" font-size="8.00">0.0 (0.0%)</text>
<text text-anchor="end" x="467" y="-767.1" font-family="Times,serif" font-size="8.00">of 0.0 (100.0%)</text>
</g>
<!-- N7&#45;&gt;N9 -->
<g id="edge4" class="edge"><title>N7&#45;&gt;N9</title>
<path fill="none" stroke="black" stroke-width="2" d="M423,-848.418C423,-836.283 423,-819.564 423,-805.575"/>
<polygon fill="black" stroke="black" stroke-width="2" points="426.5,-805.531 423,-795.531 419.5,-805.531 426.5,-805.531"/>
<text text-anchor="middle" x="432" y="-818.3" font-family="Times,serif" font-size="14.00">0.0</text>
</g>
<!-- N8&#45;&gt;N7 -->
<g id="edge1" class="edge"><title>N8&#45;&gt;N7</title>
<path fill="none" stroke="black" stroke-width="2" d="M423,-936.418C423,-924.283 423,-907.564 423,-893.575"/>
<polygon fill="black" stroke="black" stroke-width="2" points="426.5,-893.531 423,-883.531 419.5,-893.531 426.5,-893.531"/>
<text text-anchor="middle" x="432" y="-906.3" font-family="Times,serif" font-size="14.00">0.0</text>
</g>
<!-- N9&#45;&gt;N6 -->
<g id="edge6" class="edge"><title>N9&#45;&gt;N6</title>
<path fill="none" stroke="black" stroke-width="2" d="M423,-760.418C423,-748.283 423,-731.564 423,-717.575"/>
<polygon fill="black" stroke="black" stroke-width="2" points="426.5,-717.531 423,-707.531 419.5,-717.531 426.5,-717.531"/>
<text text-anchor="middle" x="432" y="-730.3" font-family="Times,serif" font-size="14.00">0.0</text>
</g>
<!-- N10 -->
<g id="node11" class="node"><title>N10</title>
<polygon fill="none" stroke="black" points="457.25,-335.5 388.75,-335.5 388.75,-300.5 457.25,-300.5 457.25,-335.5"/>
<text text-anchor="middle" x="423" y="-325.1" font-family="Times,serif" font-size="8.00">ngx_create_pool</text>
<text text-anchor="end" x="449.5" y="-316.1" font-family="Times,serif" font-size="8.00">0.0 (0.0%)</text>
<text text-anchor="end" x="449.5" y="-307.1" font-family="Times,serif" font-size="8.00">of 0.0 (83.3%)</text>
</g>
<!-- N12 -->
<g id="node13" class="node"><title>N12</title>
<polygon fill="none" stroke="black" points="593.25,-248 252.75,-248 252.75,-122 593.25,-122 593.25,-248"/>
<text text-anchor="middle" x="423" y="-201.12" font-family="Times,serif" font-size="53.60">ngx_memalign</text>
<text text-anchor="end" x="585.5" y="-142.12" font-family="Times,serif" font-size="53.60">0.0 (83.3%)</text>
</g>
<!-- N10&#45;&gt;N12 -->
<g id="edge10" class="edge"><title>N10&#45;&gt;N12</title>
<path fill="none" stroke="black" stroke-width="2" d="M423,-300.409C423,-289.452 423,-274.254 423,-258.509"/>
<polygon fill="black" stroke="black" stroke-width="2" points="426.5,-258.122 423,-248.122 419.5,-258.122 426.5,-258.122"/>
<text text-anchor="middle" x="432" y="-270.3" font-family="Times,serif" font-size="14.00">0.0</text>
</g>
<!-- N13 -->
<g id="node14" class="node"><title>N13</title>
<polygon fill="none" stroke="black" points="470.25,-423.5 375.75,-423.5 375.75,-388.5 470.25,-388.5 470.25,-423.5"/>
<text text-anchor="middle" x="423" y="-413.1" font-family="Times,serif" font-size="8.00">ngx_http_create_request</text>
<text text-anchor="end" x="462.5" y="-404.1" font-family="Times,serif" font-size="8.00">0.0 (0.0%)</text>
<text text-anchor="end" x="462.5" y="-395.1" font-family="Times,serif" font-size="8.00">of 0.0 (66.7%)</text>
</g>
<!-- N11&#45;&gt;N13 -->
<g id="edge12" class="edge"><title>N11&#45;&gt;N13</title>
<path fill="none" stroke="black" stroke-width="2" d="M423,-496.438C423,-479.733 423,-453.67 423,-433.98"/>
<polygon fill="black" stroke="black" stroke-width="2" points="426.5,-433.796 423,-423.796 419.5,-433.796 426.5,-433.796"/>
<text text-anchor="middle" x="432" y="-456.3" font-family="Times,serif" font-size="14.00">0.0</text>
</g>
<!-- N15 -->
<g id="node16" class="node"><title>N15</title>
<polygon fill="none" stroke="black" points="300,-423.5 214,-423.5 214,-388.5 300,-388.5 300,-423.5"/>
<text text-anchor="middle" x="257" y="-413.1" font-family="Times,serif" font-size="8.00">ngx_create_temp_buf</text>
<text text-anchor="end" x="292" y="-404.1" font-family="Times,serif" font-size="8.00">0.0 (0.0%)</text>
<text text-anchor="end" x="292" y="-395.1" font-family="Times,serif" font-size="8.00">of 0.0 (16.7%)</text>
</g>
<!-- N11&#45;&gt;N15 -->
<g id="edge14" class="edge"><title>N11&#45;&gt;N15</title>
<path fill="none" stroke="black" d="M397.062,-496.438C368.64,-478.288 322.915,-449.09 291.487,-429.022"/>
<polygon fill="black" stroke="black" points="293.341,-426.053 283.029,-423.621 289.573,-431.953 293.341,-426.053"/>
<text text-anchor="middle" x="373" y="-456.3" font-family="Times,serif" font-size="14.00">0.0</text>
</g>
<!-- N13&#45;&gt;N10 -->
<g id="edge11" class="edge"><title>N13&#45;&gt;N10</title>
<path fill="none" stroke="black" stroke-width="2" d="M423,-388.418C423,-376.283 423,-359.564 423,-345.575"/>
<polygon fill="black" stroke="black" stroke-width="2" points="426.5,-345.531 423,-335.531 419.5,-345.531 426.5,-345.531"/>
<text text-anchor="middle" x="432" y="-358.3" font-family="Times,serif" font-size="14.00">0.0</text>
</g>
<!-- N14 -->
<g id="node15" class="node"><title>N14</title>
<polygon fill="none" stroke="black" points="275,-70 123,-70 123,-0 275,-0 275,-70"/>
<text text-anchor="middle" x="199" y="-43.28" font-family="Times,serif" font-size="28.40">ngx_alloc</text>
<text text-anchor="end" x="267" y="-12.28" font-family="Times,serif" font-size="28.40">0.0 (16.7%)</text>
</g>
<!-- N17 -->
<g id="node18" class="node"><title>N17</title>
<polygon fill="none" stroke="black" points="252,-335.5 188,-335.5 188,-300.5 252,-300.5 252,-335.5"/>
<text text-anchor="middle" x="220" y="-325.1" font-family="Times,serif" font-size="8.00">ngx_palloc</text>
<text text-anchor="end" x="244" y="-316.1" font-family="Times,serif" font-size="8.00">0.0 (0.0%)</text>
<text text-anchor="end" x="244" y="-307.1" font-family="Times,serif" font-size="8.00">of 0.0 (16.7%)</text>
</g>
<!-- N15&#45;&gt;N17 -->
<g id="edge13" class="edge"><title>N15&#45;&gt;N17</title>
<path fill="none" stroke="black" d="M249.866,-388.418C244.543,-376.045 237.169,-358.907 231.081,-344.755"/>
<polygon fill="black" stroke="black" points="234.279,-343.333 227.112,-335.531 227.849,-346.1 234.279,-343.333"/>
<text text-anchor="middle" x="250" y="-358.3" font-family="Times,serif" font-size="14.00">0.0</text>
</g>
<!-- N16&#45;&gt;N10 -->
<g id="edge17" class="edge"><title>N16&#45;&gt;N10</title>
<path fill="none" stroke="black" d="M502.736,-442.28C497.713,-427.465 489.382,-405.528 479,-388 469.583,-372.102 456.721,-355.978 445.698,-343.318"/>
<polygon fill="black" stroke="black" points="448.036,-340.681 438.774,-335.536 442.806,-345.334 448.036,-340.681"/>
<text text-anchor="middle" x="504" y="-402.3" font-family="Times,serif" font-size="14.00">0.0</text>
</g>
<!-- N18 -->
<g id="node19" class="node"><title>N18</title>
<polygon fill="none" stroke="black" points="234.25,-202.5 163.75,-202.5 163.75,-167.5 234.25,-167.5 234.25,-202.5"/>
<text text-anchor="middle" x="199" y="-192.1" font-family="Times,serif" font-size="8.00">ngx_palloc_large</text>
<text text-anchor="end" x="226.5" y="-183.1" font-family="Times,serif" font-size="8.00">0.0 (0.0%)</text>
<text text-anchor="end" x="226.5" y="-174.1" font-family="Times,serif" font-size="8.00">of 0.0 (16.7%)</text>
</g>
<!-- N17&#45;&gt;N18 -->
<g id="edge18" class="edge"><title>N17&#45;&gt;N18</title>
<path fill="none" stroke="black" d="M217.34,-300.409C213.809,-278.383 207.53,-239.213 203.316,-212.924"/>
<polygon fill="black" stroke="black" points="206.743,-212.19 201.704,-202.87 199.831,-213.298 206.743,-212.19"/>
<text text-anchor="middle" x="223" y="-270.3" font-family="Times,serif" font-size="14.00">0.0</text>
</g>
<!-- N18&#45;&gt;N14 -->
<g id="edge15" class="edge"><title>N18&#45;&gt;N14</title>
<path fill="none" stroke="black" d="M199,-167.31C199,-146.347 199,-109.573 199,-80.2636"/>
<polygon fill="black" stroke="black" points="202.5,-80.2461 199,-70.2461 195.5,-80.2462 202.5,-80.2461"/>
<text text-anchor="middle" x="208" y="-92.3" font-family="Times,serif" font-size="14.00">0.0</text>
</g>
</g>
</g></svg>
